<svg xmlns="http://www.w3.org/2000/svg" width="49" height="48" viewBox="0 0 49 48" fill="none" id="Logo"><g id="logomark"><g id="var"><path d="M2.98438 29.2901C2.98438 27.0301 3.4295 24.7921 4.2944 22.7042C5.15932 20.6161 6.42698 18.7189 8.02509 17.1208C9.62321 15.5227 11.5204 14.255 13.6084 13.3901C15.6965 12.5253 17.9344 12.0801 20.1945 12.0801V29.2901H2.98438Z" fill="#442781"></path></g><g id="monovar"><path d="M2.98438 29.29C2.98438 31.5501 3.4295 33.788 4.2944 35.8761C5.15932 37.9641 6.42698 39.8613 8.02509 41.4594C9.62321 43.0575 11.5204 44.3252 13.6084 45.1901C15.6965 46.055 17.9344 46.5001 20.1945 46.5001V29.29H2.98438Z" fill="#61459C"></path></g><g id="monovar_2"><path d="M37.4051 29.29C37.4051 31.5501 36.9603 33.788 36.0955 35.8761C35.2306 37.9641 33.963 39.8613 32.3646 41.4594C30.7665 43.0575 28.8693 44.3252 26.7812 45.1901C24.6933 46.055 22.4553 46.5001 20.1953 46.5001V29.29H37.4051Z" fill="#A992DB"></path></g><path d="M48.0159 14.422C48.0159 21.5586 42.2303 27.344 35.0938 27.344H22.1719V14.422C22.1719 7.2854 27.9573 1.5 35.0938 1.5C42.2303 1.5 48.0159 7.2854 48.0159 14.422Z" fill="#FF7917"></path></g></svg>